<?xml version="1.0" encoding="UTF-8" standalone="no"?>
<!-- Generator: Gravit.io -->

<svg
   style="isolation:isolate"
   viewBox="0 0 48 48"
   width="48pt"
   height="48pt"
   version="1.1"
   id="svg6812"
   sodipodi:docname="folder-3-root.svg"
   inkscape:version="1.4 (e7c3feb100, 2024-10-09)"
   xmlns:inkscape="http://www.inkscape.org/namespaces/inkscape"
   xmlns:sodipodi="http://sodipodi.sourceforge.net/DTD/sodipodi-0.dtd"
   xmlns:xlink="http://www.w3.org/1999/xlink"
   xmlns="http://www.w3.org/2000/svg"
   xmlns:svg="http://www.w3.org/2000/svg">
  <defs
     id="defs6816">
    <linearGradient
       id="linearGradient2909"
       x1="0"
       y1="0.5"
       x2="1"
       y2="0.5"
       gradientTransform="matrix(46.1,0,0,37.1,0.95,5.45)"
       gradientUnits="userSpaceOnUse">
      <stop
         offset="0"
         stop-opacity="1"
         style="stop-color:#b900ff;stop-opacity:1;"
         id="stop2903" />
      <stop
         offset="1"
         stop-opacity="1"
         style="stop-color:#6440ff;stop-opacity:1;"
         id="stop2907" />
    </linearGradient>
    <linearGradient
       inkscape:collect="always"
       xlink:href="#linearGradient2909"
       id="linearGradient388"
       gradientUnits="userSpaceOnUse"
       gradientTransform="matrix(17.230803,0,0,13.866872,-0.3152386,1.3636642)"
       x1="0.18724659"
       y1="1.0292805"
       x2="1.0239022"
       y2="0.50019503" />
    <linearGradient
       inkscape:collect="always"
       xlink:href="#linearGradient2909"
       id="linearGradient23"
       x1="-30.068659"
       y1="129.61562"
       x2="137.49017"
       y2="44.341053"
       gradientUnits="userSpaceOnUse"
       gradientTransform="translate(-40.000005,-83.279005)" />
    <linearGradient
       inkscape:collect="always"
       xlink:href="#linearGradient2909"
       id="linearGradient18"
       x1="-30.068661"
       y1="129.61562"
       x2="137.49017"
       y2="44.341053"
       gradientUnits="userSpaceOnUse"
       gradientTransform="matrix(0.21919963,0,0,0.21919963,16.862206,14.280457)" />
  </defs>
  <sodipodi:namedview
     id="namedview6814"
     pagecolor="#ffffff"
     bordercolor="#666666"
     borderopacity="1.0"
     inkscape:showpageshadow="2"
     inkscape:pageopacity="0.0"
     inkscape:pagecheckerboard="0"
     inkscape:deskcolor="#d1d1d1"
     inkscape:document-units="pt"
     showgrid="true"
     inkscape:zoom="10.429825"
     inkscape:cx="38.207736"
     inkscape:cy="27.421361"
     inkscape:current-layer="svg6812" />
  <g
     id="path6810"
     transform="matrix(2.547739,0,0,2.547739,2.854264,2.854264)"
     style="stroke-width:0.392505">
    <path
       id="path13583"
       style="color:#000000;fill:url(#linearGradient388);fill-opacity:1;fill-rule:evenodd;stroke-width:0.392503;-inkscape-stroke:none"
       d="m 0.66050587,0.96405136 c -0.80413004,0.058164 -1.4505232,0.83237834 -1.38265749,1.63276224 0.007466,1.5070237 -0.0147574,3.0157652 0.0107936,4.5217459 0.0704384,0.561257 0.8035996,0.874416 1.25068059,0.520063 0.3592355,-0.230206 0.3606039,-0.684376 0.3372691,-1.060865 0.00937,-1.3095369 0.00745,-2.3522117 0.01387,-3.6515861 C 0.88897547,2.5079645 1.3576181,2.5525988 1.5677745,2.5554945 H 5.3545332 C 5.7221208,2.8883857 6.0278035,3.2979643 6.4335022,3.5840924 6.9263858,3.8662343 7.6140058,3.4692093 7.6008039,2.8978738 7.6236229,2.3776443 7.1092864,2.1062168 6.8143672,1.7581076 6.4702412,1.395735 6.0914054,0.97340476 5.5508201,0.96051796 3.9210299,0.95663486 2.2901315,0.94944516 0.66050587,0.96405136 Z M 9.6054389,2.829982 C 8.9029876,2.8811896 8.4266864,3.4637014 7.8731063,3.8264651 7.3449209,4.2037117 6.8473319,4.6320549 6.3008478,4.9788459 5.8625739,5.1538559 5.3763558,5.0321508 4.9168133,5.0682226 4.4859389,5.0935642 4.0429439,5.0165522 3.6192759,5.1076437 3.0770995,5.2630674 2.8785061,6.0237853 3.2885772,6.4165692 3.6400052,6.8012005 4.197468,6.6294605 4.6524001,6.6669655 5.2771983,6.6470105 5.9079033,6.7073345 6.5291623,6.6364175 7.1481253,6.5107293 7.5744217,5.9972406 8.0847342,5.6660126 8.6139777,5.287971 9.1122066,4.8582878 9.6606509,4.512109 10.097815,4.3395312 10.582317,4.460257 11.040365,4.424346 c 1.519927,0.00292 2.835108,-0.00584 4.354676,0.00438 0.378779,0.00534 0.329072,0.3592376 0.328693,0.6120486 -0.0029,2.9581139 -0.01,5.8434904 -0.0044,8.8012464 -0.05356,0.207185 -0.401161,0.191936 -0.612049,0.196685 -4.702375,-0.0029 -9.2146736,0.0058 -13.9166907,-0.0044 -0.33332593,-2.51e-4 -0.30964903,-0.398335 -0.31402293,-0.612048 -0.00989,-1.197291 -0.003,-2.385831 -0.01387,-3.5928655 -0.086127,-0.56706 -0.84519451,-0.859329 -1.27917714,-0.475334 -0.40807123,0.293408 -0.29266398,0.8318035 -0.30569556,1.2603955 0.0104962,1.232532 -0.020742,2.467174 0.0151266,3.698437 0.0861574,0.795808 0.87201672,1.403408 1.6623129,1.324538 4.98757823,-0.0041 9.97560283,0.0082 14.96290183,-0.0061 0.812953,-0.04505 1.473292,-0.826246 1.404288,-1.633944 -0.0054,-3.266617 0.01077,-6.5338345 -0.008,-9.8000773 -0.06461,-0.8155511 -0.861172,-1.4539632 -1.66941,-1.3717072 -2.013162,0.00296 -4.026595,-0.0059 -6.0395991,0.00438 z"
       sodipodi:nodetypes="cccccccccccccscccccccccccccccccccccccccss" />
  </g>
  <path
     id="path4"
     style="color:#000000;font-style:normal;font-variant:normal;font-weight:normal;font-stretch:normal;font-size:medium;line-height:normal;font-family:sans-serif;font-variant-ligatures:normal;font-variant-position:normal;font-variant-caps:normal;font-variant-numeric:normal;font-variant-alternates:normal;font-variant-east-asian:normal;font-feature-settings:normal;font-variation-settings:normal;text-indent:0;text-align:start;text-decoration-line:none;text-decoration-style:solid;text-decoration-color:#000000;letter-spacing:normal;word-spacing:normal;text-transform:none;writing-mode:lr-tb;direction:ltr;text-orientation:mixed;dominant-baseline:auto;baseline-shift:baseline;text-anchor:start;white-space:normal;shape-padding:0;shape-margin:0;inline-size:0;clip-rule:nonzero;display:inline;overflow:visible;visibility:visible;isolation:isolate;mix-blend-mode:normal;color-interpolation:sRGB;color-interpolation-filters:linearRGB;solid-color:#000000;solid-opacity:1;vector-effect:none;fill:url(#linearGradient18);fill-rule:nonzero;stroke:none;stroke-width:1;stroke-linecap:butt;stroke-linejoin:miter;stroke-miterlimit:4;stroke-dasharray:none;stroke-dashoffset:0;stroke-opacity:1;-inkscape-stroke:none;color-rendering:auto;image-rendering:auto;shape-rendering:auto;text-rendering:auto;enable-background:accumulate;stop-color:#000000;stop-opacity:1"
     d="m 32.070435,31.987184 c -0.04211,0.0019 -0.08544,0.0024 -0.133575,0.003 -0.167171,0.0018 -0.400965,0.0013 -0.618218,0.115594 l -4.39e-4,-8.55e-4 c -0.0018,8.78e-4 -0.0034,0.0021 -0.0052,0.003 -10e-4,5.26e-4 -0.002,7.23e-4 -0.003,0.0013 l 4.39e-4,4.38e-4 c -0.39265,0.196655 -0.631636,0.660494 -0.637483,1.116559 h -4.39e-4 c -6e-5,0.0015 5.05e-4,0.0028 4.39e-4,0.0042 -1.1e-5,0.0011 -4.17e-4,0.0023 -4.39e-4,0.0034 h 4.39e-4 c -0.01214,0.340085 0.114119,0.670561 0.315102,0.910201 0.195845,0.233524 0.485838,0.403574 0.811731,0.375897 v 4.37e-4 c 1.407953,0.0047 2.816542,0.0036 4.224342,0.0025 0.602496,-4.61e-4 1.204917,-8.55e-4 1.807129,-8.55e-4 0.335725,0.04002 0.640137,-0.121186 0.846838,-0.359628 0.211743,-0.244293 0.339967,-0.587143 0.319813,-0.946591 h 8.77e-4 c -2.4e-5,-0.0021 -4.38e-4,-0.004 -4.38e-4,-0.006 -1.15e-4,-0.0019 1.22e-4,-0.0037 0,-0.0056 h -8.77e-4 c -0.0072,-0.338757 -0.142587,-0.649831 -0.350209,-0.871668 -0.204458,-0.218395 -0.491674,-0.36038 -0.803169,-0.33865 v -0.0017 c -0.995854,-0.0052 -1.992217,-0.004 -2.987479,-0.003 -0.925819,9.41e-4 -1.850898,0.0019 -2.775555,-0.0022 h -0.0056 z"
     sodipodi:nodetypes="cscccccccccccccccccccccccccccc" />
  <g
     id="path6"
     transform="matrix(0.21919963,0,0,0.21919963,25.630192,32.535184)"
     style="stroke-width:4.56205">
    <path
       style="display:none;fill-opacity:0;stroke-width:4.56205;stroke-linecap:round;stroke-linejoin:round"
       d="m -5.999949,-37.499949 18.000162,18.00016 -18.000162,18.000163"
       id="path1" />
    <path
       style="display:inline;fill:url(#linearGradient23);stroke-width:4.56205;stroke-linecap:round;stroke-linejoin:round"
       d="m -6,-43.5 a 6.0000501,6.0000501 0 0 0 -4.242188,1.757813 6.0000501,6.0000501 0 0 0 0,8.484375 L 3.515625,-19.5 -10.242188,-5.7421875 a 6.0000501,6.0000501 0 0 0 0,8.484375 6.0000501,6.0000501 0 0 0 8.4843755,0 L 16.242187,-15.257813 a 6.0006501,6.0006501 0 0 0 0,-8.484374 l -17.9999995,-18 A 6.0000501,6.0000501 0 0 0 -6,-43.5 Z"
       id="path2" />
  </g>
</svg>
